# This file uses centimeters as units for non-parametric coordinates.

mtllib crate.mtl
g default
v -0.500000 -0.500000 0.500000
v 0.500000 -0.500000 0.500000
v -0.500000 0.500000 0.500000
v 0.500000 0.500000 0.500000
v -0.500000 0.500000 -0.500000
v 0.500000 0.500000 -0.500000
v -0.500000 -0.500000 -0.500000
v 0.500000 -0.500000 -0.500000
vt 0.993381 0.009440
vt 0.999408 0.002316
vt 0.003211 0.008344
vt 0.002115 0.998514
vt 0.003211 0.007248
vt 0.992285 0.997419
vt 0.003211 0.006152
vt 0.992285 0.996323
vt 0.003211 0.995226
vt 0.992285 0.995226
vt 0.991189 0.009440
vt 0.991189 0.998514
vt 0.004307 0.009440
vt 0.004307 0.998515
vt 0.992285 0.006152
vt 0.003211 0.996323
vt 0.992285 0.007248
vt 0.003211 0.997419
vt 0.992285 0.008344
vt 0.010334 0.991391
vt 0.010334 0.002316
vt 0.993381 0.998515
vt 0.002115 0.009440
vt 0.999408 0.991391
vn 0.000000 0.000000 1.000000
vn 0.000000 0.000000 1.000000
vn 0.000000 0.000000 1.000000
vn 0.000000 0.000000 1.000000
vn 0.000000 1.000000 0.000000
vn 0.000000 1.000000 0.000000
vn 0.000000 1.000000 0.000000
vn 0.000000 1.000000 0.000000
vn 0.000000 0.000000 -1.000000
vn 0.000000 0.000000 -1.000000
vn 0.000000 0.000000 -1.000000
vn 0.000000 0.000000 -1.000000
vn 0.000000 -1.000000 0.000000
vn 0.000000 -1.000000 0.000000
vn 0.000000 -1.000000 0.000000
vn 0.000000 -1.000000 0.000000
vn 1.000000 0.000000 0.000000
vn 1.000000 0.000000 0.000000
vn 1.000000 0.000000 0.000000
vn 1.000000 0.000000 0.000000
vn -1.000000 0.000000 0.000000
vn -1.000000 0.000000 0.000000
vn -1.000000 0.000000 0.000000
vn -1.000000 0.000000 0.000000
s off
g pCube1
usemtl blinn1SG
f 1/21/1 2/2/2 4/24/3 3/20/4
f 3/3/5 4/19/6 6/6/7 5/18/8
f 5/5/9 6/17/10 8/8/11 7/16/12
f 7/7/13 8/15/14 2/10/15 1/9/16
f 2/23/17 8/11/18 6/12/19 4/4/20
f 7/13/21 1/1/22 3/22/23 5/14/24
